<svg id="SvgjsSvg1001" width="288" height="288" xmlns="http://www.w3.org/2000/svg" version="1.1" xmlns:xlink="http://www.w3.org/1999/xlink" xmlns:svgjs="http://svgjs.com/svgjs"><defs id="SvgjsDefs1002"></defs><g id="SvgjsG1008" transform="matrix(0.9167,0,0,0.9167,11.995200000000011,11.995200000000011)"><svg xmlns="http://www.w3.org/2000/svg" viewBox="0 0 32 32" width="288" height="288"><path d="M4 16c0-6.6 5.4-12 12-12s12 5.4 12 12c0 1.2-0.8 2-2 2s-2-0.8-2-2c0-4.4-3.6-8-8-8s-8 3.6-8 8 3.6 8 8 8c1.2 0 2 0.8 2 2s-0.8 2-2 2c-6.6 0-12-5.4-12-12z" fill="#f6983b" class="color000 svgShape"></path></svg></g></svg>