<svg id="SvgjsSvg1031" width="288" height="288" xmlns="http://www.w3.org/2000/svg" version="1.1" xmlns:xlink="http://www.w3.org/1999/xlink" xmlns:svgjs="http://svgjs.com/svgjs"><defs id="SvgjsDefs1032"></defs><g id="SvgjsG1033"><svg xmlns="http://www.w3.org/2000/svg" viewBox="0 0 22 32" width="288" height="288"><path d="M20.8 14.4q0.704 0 1.152 0.48t0.448 1.12-0.48 1.12-1.12 0.48h-19.2q-0.64 0-1.12-0.48t-0.48-1.12 0.448-1.12 1.152-0.48h19.2zM1.6 11.2q-0.64 0-1.12-0.48t-0.48-1.12 0.448-1.12 1.152-0.48h19.2q0.704 0 1.152 0.48t0.448 1.12-0.48 1.12-1.12 0.48h-19.2zM20.8 20.8q0.704 0 1.152 0.48t0.448 1.12-0.48 1.12-1.12 0.48h-19.2q-0.64 0-1.12-0.48t-0.48-1.12 0.448-1.12 1.152-0.48h19.2z" fill="#f6983b" class="color000 svgShape"></path></svg></g></svg>