<?xml version="1.0"?>
<svg xmlns="http://www.w3.org/2000/svg" xmlns:xlink="http://www.w3.org/1999/xlink" xmlns:svgjs="http://svgjs.com/svgjs" version="1.1" width="512" height="512" x="0" y="0" viewBox="0 0 512 512" style="enable-background:new 0 0 512 512" xml:space="preserve" class=""><g><g xmlns="http://www.w3.org/2000/svg"><circle cx="256" cy="256" fill="#f6983b" r="256" data-original="#0052be" style="" class=""/><path d="m256 0v512c141.385 0 256-114.615 256-256s-114.615-256-256-256z" fill="#f6983b" data-original="#00337a" style="" class=""/><g><path d="m331 371h-30c-8.284 0-15-6.716-15-15v-200c0-8.284 6.716-15 15-15h30c8.284 0 15 6.716 15 15v200c0 8.284-6.716 15-15 15z" fill="#ffffff" data-original="#ff1f3d" style="" class=""/><path d="m211 371h-30c-8.284 0-15-6.716-15-15v-200c0-8.284 6.716-15 15-15h30c8.284 0 15 6.716 15 15v200c0 8.284-6.716 15-15 15z" fill="#ffffff" data-original="#ff6b6b" style="" class=""/></g></g></g></svg>
