<?xml version="1.0"?>
<svg xmlns="http://www.w3.org/2000/svg" xmlns:xlink="http://www.w3.org/1999/xlink" xmlns:svgjs="http://svgjs.com/svgjs" version="1.1" width="512" height="512" x="0" y="0" viewBox="0 0 512 512" style="enable-background:new 0 0 512 512" xml:space="preserve" class=""><g><g xmlns="http://www.w3.org/2000/svg"><circle cx="256" cy="256" fill="#f6983b" r="256" data-original="#0052be" style="" class=""/><path d="m512 256h-512c0 141.385 114.615 256 256 256s256-114.615 256-256z" fill="#f6983b" data-original="#00337a" style="" class=""/><g><path d="m286.002 411c-3.188 0-6.355-1.015-9.002-3l-120-90c-3.777-2.833-6-7.279-6-12v-100c0-4.721 2.223-9.167 6-12l120-90c4.545-3.409 10.626-3.958 15.708-1.417 5.082 2.542 8.292 7.735 8.292 13.417v280c0 5.682-3.21 10.875-8.292 13.417-2.122 1.061-4.42 1.583-6.706 1.583z" fill="#ffffff" data-original="#f9f9f9" style="" class=""/><path d="m151 256v50c0 4.721 2.223 9.167 6 12l120 90c2.646 1.985 5.813 3 9.002 3 2.286 0 4.584-.522 6.706-1.583 5.082-2.542 8.292-7.735 8.292-13.417v-140z" fill="#ffffff" data-original="#e2dff4" style="" class=""/><path d="m407.213 256 17.678-17.678c5.858-5.858 5.858-15.355 0-21.213-5.857-5.858-15.355-5.858-21.213 0l-17.678 17.678-17.678-17.678c-5.857-5.858-15.355-5.858-21.213 0s-5.858 15.355 0 21.213l17.678 17.678-17.678 17.678c-5.858 5.858-5.858 15.355 0 21.213 2.929 2.929 6.768 4.394 10.606 4.394s7.678-1.464 10.606-4.394l17.679-17.678 17.678 17.678c2.929 2.929 6.768 4.394 10.606 4.394s7.678-1.464 10.606-4.394c5.858-5.858 5.858-15.355 0-21.213z" fill="#ffffff" data-original="#f9f9f9" style="" class=""/><path d="m126 191c-19.299 0-35 15.701-35 35v60c0 19.299 15.701 35 35 35h35v-130z" fill="#ffffff" data-original="#e2dff4" style="" class=""/></g><g><path d="m347.109 273.678c-5.858 5.858-5.858 15.355 0 21.213 2.929 2.929 6.768 4.394 10.606 4.394s7.678-1.464 10.606-4.394l17.679-17.678 17.678 17.678c2.929 2.929 6.768 4.394 10.606 4.394s7.678-1.464 10.606-4.394c5.858-5.858 5.858-15.355 0-21.213l-17.677-17.678h-42.426z" fill="#ffffff" data-original="#e2dff4" style="" class=""/><path d="m91 256v30c0 19.299 15.701 35 35 35h35v-65z" fill="#ffffff" data-original="#bebcdd" style="" class=""/></g></g></g></svg>
